solid 
 facet normal  0.000000e+00 -1.000000e+00  0.000000e+00
   outer loop
     vertex  0.000000e+00  0.000000e+00  0.000000e+00
     vertex  5.480000e-01  0.000000e+00  2.500000e+00
     vertex  0.000000e+00  0.000000e+00  4.572000e+00
   endloop
 endfacet
 facet normal -0.000000e+00 -1.000000e+00  0.000000e+00
   outer loop
     vertex  5.480000e-01  0.000000e+00  5.000000e-01
     vertex  5.480000e-01  0.000000e+00  2.500000e+00
     vertex  0.000000e+00  0.000000e+00  0.000000e+00
   endloop
 endfacet
 facet normal  0.000000e+00 -1.000000e+00  0.000000e+00
   outer loop
     vertex  5.548000e+00  0.000000e+00  2.500000e+00
     vertex  0.000000e+00  0.000000e+00  4.572000e+00
     vertex  5.480000e-01  0.000000e+00  2.500000e+00
   endloop
 endfacet
 facet normal -0.000000e+00 -1.000000e+00  0.000000e+00
   outer loop
     vertex  5.548000e+00  0.000000e+00  5.000000e-01
     vertex  5.480000e-01  0.000000e+00  5.000000e-01
     vertex  0.000000e+00  0.000000e+00  0.000000e+00
   endloop
 endfacet
 facet normal -0.000000e+00 -1.000000e+00  0.000000e+00
   outer loop
     vertex  1.524000e+01  0.000000e+00  4.572000e+00
     vertex  0.000000e+00  0.000000e+00  4.572000e+00
     vertex  5.548000e+00  0.000000e+00  2.500000e+00
   endloop
 endfacet
 facet normal  0.000000e+00 -1.000000e+00  0.000000e+00
   outer loop
     vertex  1.524000e+01  0.000000e+00  0.000000e+00
     vertex  5.548000e+00  0.000000e+00  2.500000e+00
     vertex  5.548000e+00  0.000000e+00  5.000000e-01
   endloop
 endfacet
 facet normal  0.000000e+00 -1.000000e+00  0.000000e+00
   outer loop
     vertex  1.524000e+01  0.000000e+00  0.000000e+00
     vertex  1.524000e+01  0.000000e+00  4.572000e+00
     vertex  5.548000e+00  0.000000e+00  2.500000e+00
   endloop
 endfacet
 facet normal  0.000000e+00 -1.000000e+00  0.000000e+00
   outer loop
     vertex  0.000000e+00  0.000000e+00  0.000000e+00
     vertex  1.524000e+01  0.000000e+00  0.000000e+00
     vertex  5.548000e+00  0.000000e+00  5.000000e-01
   endloop
 endfacet
endsolid
