solid Wall001
 facet normal  0.000000e+00 -1.000000e+00  0.000000e+00
   outer loop
     vertex  1.524000e+01  0.000000e+00  0.000000e+00
     vertex  0.000000e+00  0.000000e+00  4.572000e+00
     vertex  0.000000e+00  0.000000e+00  0.000000e+00
   endloop
 endfacet
 facet normal  0.000000e+00 -1.000000e+00  0.000000e+00
   outer loop
     vertex  1.524000e+01  0.000000e+00  0.000000e+00
     vertex  1.524000e+01  0.000000e+00  4.572000e+00
     vertex  0.000000e+00  0.000000e+00  4.572000e+00
   endloop
 endfacet
endsolid Wall001
solid Wall002
 facet normal  1.000000e+00  0.000000e+00  0.000000e+00
   outer loop
     vertex  1.524000e+01  0.000000e+00  4.572000e+00
     vertex  1.524000e+01  0.000000e+00  0.000000e+00
     vertex  1.524000e+01  1.524000e+01  0.000000e+00
   endloop
 endfacet
 facet normal  1.000000e+00 -0.000000e+00  0.000000e+00
   outer loop
     vertex  1.524000e+01  0.000000e+00  4.572000e+00
     vertex  1.524000e+01  1.524000e+01  0.000000e+00
     vertex  1.524000e+01  1.524000e+01  4.572000e+00
   endloop
 endfacet
endsolid Wall002
solid Wall003
 facet normal  0.000000e+00  1.000000e+00  0.000000e+00
   outer loop
     vertex  1.524000e+01  1.524000e+01  4.572000e+00
     vertex  1.524000e+01  1.524000e+01  0.000000e+00
     vertex  0.000000e+00  1.524000e+01  0.000000e+00
   endloop
 endfacet
 facet normal  0.000000e+00  1.000000e+00  0.000000e+00
   outer loop
     vertex  1.524000e+01  1.524000e+01  4.572000e+00
     vertex  0.000000e+00  1.524000e+01  0.000000e+00
     vertex  0.000000e+00  1.524000e+01  4.572000e+00
   endloop
 endfacet
endsolid Wall003
solid Wall004
 facet normal -1.000000e+00  0.000000e+00  0.000000e+00
   outer loop
     vertex  0.000000e+00  0.000000e+00  0.000000e+00
     vertex  0.000000e+00  1.524000e+01  4.572000e+00
     vertex  0.000000e+00  1.524000e+01  0.000000e+00
   endloop
 endfacet
 facet normal -1.000000e+00  0.000000e+00  0.000000e+00
   outer loop
     vertex  0.000000e+00  0.000000e+00  0.000000e+00
     vertex  0.000000e+00  0.000000e+00  4.572000e+00
     vertex  0.000000e+00  1.524000e+01  4.572000e+00
   endloop
 endfacet
endsolid Wall004
solid Flr001
 facet normal  0.000000e+00  0.000000e+00 -1.000000e+00
   outer loop
     vertex  0.000000e+00  0.000000e+00  0.000000e+00
     vertex  1.524000e+01  1.524000e+01  0.000000e+00
     vertex  1.524000e+01  0.000000e+00  0.000000e+00
   endloop
 endfacet
 facet normal  0.000000e+00  0.000000e+00 -1.000000e+00
   outer loop
     vertex  0.000000e+00  1.524000e+01  0.000000e+00
     vertex  1.524000e+01  1.524000e+01  0.000000e+00
     vertex  0.000000e+00  0.000000e+00  0.000000e+00
   endloop
 endfacet
endsolid Flr001
solid Roof001
 facet normal  0.000000e+00  0.000000e+00  1.000000e+00
   outer loop
     vertex  1.524000e+01  0.000000e+00  4.572000e+00
     vertex  0.000000e+00  1.524000e+01  4.572000e+00
     vertex  0.000000e+00  0.000000e+00  4.572000e+00
   endloop
 endfacet
 facet normal  0.000000e+00  0.000000e+00  1.000000e+00
   outer loop
     vertex  1.524000e+01  1.524000e+01  4.572000e+00
     vertex  0.000000e+00  1.524000e+01  4.572000e+00
     vertex  1.524000e+01  0.000000e+00  4.572000e+00
   endloop
 endfacet
endsolid Roof001
solid Win001
 facet normal  0.000000e+00 -1.000000e+00  0.000000e+00
   outer loop
     vertex  5.548000e+00  0.000000e+00  5.000000e-01
     vertex  5.480000e-01  0.000000e+00  2.500000e+00
     vertex  5.480000e-01  0.000000e+00  5.000000e-01
   endloop
 endfacet
 facet normal  0.000000e+00 -1.000000e+00  0.000000e+00
   outer loop
     vertex  5.548000e+00  0.000000e+00  5.000000e-01
     vertex  5.548000e+00  0.000000e+00  2.500000e+00
     vertex  5.480000e-01  0.000000e+00  2.500000e+00
   endloop
 endfacet
endsolid Win001
